<mxfile host="app.diagrams.net" agent="Mozilla/5.0 (Windows NT 10.0; Win64; x64) AppleWebKit/537.36 (KHTML, like Gecko) Chrome/135.0.0.0 Safari/537.36" version="26.2.14">
  <diagram name="Page-1" id="e7e014a7-5840-1c2e-5031-d8a46d1fe8dd">
    <mxGraphModel dx="946" dy="597" grid="1" gridSize="10" guides="1" tooltips="1" connect="1" arrows="1" fold="1" page="1" pageScale="1" pageWidth="1169" pageHeight="826" background="none" math="0" shadow="0">
      <root>
        <mxCell id="0" />
        <mxCell id="1" parent="0" />
        <mxCell id="2" value="Customer Lane" style="swimlane;whiteSpace=wrap" parent="1" vertex="1">
          <mxGeometry x="60" y="20" width="280" height="570" as="geometry" />
        </mxCell>
        <mxCell id="5" value="" style="ellipse;shape=startState;fillColor=#000000;strokeColor=#ff0000;" parent="2" vertex="1">
          <mxGeometry x="100" y="40" width="30" height="30" as="geometry" />
        </mxCell>
        <mxCell id="6" value="" style="edgeStyle=elbowEdgeStyle;elbow=horizontal;verticalAlign=bottom;endArrow=open;endSize=8;strokeColor=#FF0000;endFill=1;rounded=0" parent="2" source="5" target="7" edge="1">
          <mxGeometry x="100" y="40" as="geometry">
            <mxPoint x="115" y="110" as="targetPoint" />
          </mxGeometry>
        </mxCell>
        <mxCell id="7" value="Review Cart" style="" parent="2" vertex="1">
          <mxGeometry x="60" y="110" width="110" height="50" as="geometry" />
        </mxCell>
        <mxCell id="8" value="Click Checkout" style="" parent="2" vertex="1">
          <mxGeometry x="60" y="220" width="110" height="50" as="geometry" />
        </mxCell>
        <mxCell id="9" value="" style="endArrow=open;strokeColor=#FF0000;endFill=1;rounded=0" parent="2" source="7" target="8" edge="1">
          <mxGeometry relative="1" as="geometry" />
        </mxCell>
        <mxCell id="11" value="" style="endArrow=open;strokeColor=#FF0000;endFill=1;rounded=0" parent="2" source="8" edge="1">
          <mxGeometry relative="1" as="geometry">
            <mxPoint x="114.99999999999977" y="325" as="targetPoint" />
          </mxGeometry>
        </mxCell>
        <mxCell id="12" value="" style="edgeStyle=elbowEdgeStyle;elbow=horizontal;strokeColor=#FF0000;endArrow=open;endFill=1;rounded=0;" parent="2" edge="1">
          <mxGeometry width="100" height="100" relative="1" as="geometry">
            <mxPoint x="120" y="442" as="sourcePoint" />
            <mxPoint x="60" y="352" as="targetPoint" />
            <Array as="points">
              <mxPoint x="10" y="402" />
            </Array>
          </mxGeometry>
        </mxCell>
        <mxCell id="ocmlmnkPLiXoLDkhKhnW-62" style="edgeStyle=orthogonalEdgeStyle;rounded=0;orthogonalLoop=1;jettySize=auto;html=1;exitX=0.5;exitY=1;exitDx=0;exitDy=0;exitPerimeter=0;" parent="2" source="ocmlmnkPLiXoLDkhKhnW-50" edge="1">
          <mxGeometry relative="1" as="geometry">
            <mxPoint x="115.19047619047615" y="442" as="targetPoint" />
          </mxGeometry>
        </mxCell>
        <mxCell id="ocmlmnkPLiXoLDkhKhnW-50" value="Authenticated?" style="strokeWidth=2;html=1;shape=mxgraph.flowchart.decision;whiteSpace=wrap;" parent="2" vertex="1">
          <mxGeometry x="65" y="302" width="100" height="100" as="geometry" />
        </mxCell>
        <mxCell id="3" value="Authentication Service" style="swimlane;whiteSpace=wrap" parent="1" vertex="1">
          <mxGeometry x="630" y="20" width="280" height="570" as="geometry" />
        </mxCell>
        <mxCell id="13" value="" style="ellipse;shape=startState;fillColor=#000000;strokeColor=#ff0000;" parent="3" vertex="1">
          <mxGeometry x="60" y="40" width="30" height="30" as="geometry" />
        </mxCell>
        <mxCell id="14" value="" style="edgeStyle=elbowEdgeStyle;elbow=horizontal;verticalAlign=bottom;endArrow=open;endSize=8;strokeColor=#FF0000;endFill=1;rounded=0" parent="3" source="13" target="15" edge="1">
          <mxGeometry x="40" y="20" as="geometry">
            <mxPoint x="55" y="90" as="targetPoint" />
          </mxGeometry>
        </mxCell>
        <mxCell id="15" value="idle" style="" parent="3" vertex="1">
          <mxGeometry x="20" y="110" width="110" height="50" as="geometry" />
        </mxCell>
        <mxCell id="16" value="check for &#xa;new commands" style="" parent="3" vertex="1">
          <mxGeometry x="20" y="220" width="110" height="50" as="geometry" />
        </mxCell>
        <mxCell id="17" value="" style="endArrow=open;strokeColor=#FF0000;endFill=1;rounded=0" parent="3" source="15" target="16" edge="1">
          <mxGeometry relative="1" as="geometry" />
        </mxCell>
        <mxCell id="18" value="command queue" style="" parent="3" vertex="1">
          <mxGeometry x="20" y="325" width="110" height="50" as="geometry" />
        </mxCell>
        <mxCell id="19" value="" style="endArrow=open;strokeColor=#FF0000;endFill=1;rounded=0" parent="3" source="16" target="18" edge="1">
          <mxGeometry relative="1" as="geometry" />
        </mxCell>
        <mxCell id="21" value="queue empty" style="rhombus;fillColor=#ffffc0;strokeColor=#ff0000;" parent="3" vertex="1">
          <mxGeometry x="150" y="225" width="80" height="40" as="geometry" />
        </mxCell>
        <mxCell id="22" value="yes" style="edgeStyle=elbowEdgeStyle;elbow=horizontal;align=left;verticalAlign=bottom;endArrow=open;endSize=8;strokeColor=#FF0000;exitX=0.5;exitY=0;endFill=1;rounded=0;entryX=0.75;entryY=0.5;entryPerimeter=0" parent="3" source="21" target="25" edge="1">
          <mxGeometry x="-1" relative="1" as="geometry">
            <mxPoint x="160" y="150" as="targetPoint" />
            <Array as="points">
              <mxPoint x="190" y="180" />
            </Array>
          </mxGeometry>
        </mxCell>
        <mxCell id="23" value="no" style="edgeStyle=elbowEdgeStyle;elbow=horizontal;align=left;verticalAlign=top;endArrow=open;endSize=8;strokeColor=#FF0000;endFill=1;rounded=0" parent="3" source="21" target="30" edge="1">
          <mxGeometry x="-1" relative="1" as="geometry">
            <mxPoint x="190" y="305" as="targetPoint" />
          </mxGeometry>
        </mxCell>
        <mxCell id="24" value="" style="endArrow=open;strokeColor=#FF0000;endFill=1;rounded=0" parent="3" source="16" target="21" edge="1">
          <mxGeometry relative="1" as="geometry" />
        </mxCell>
        <mxCell id="25" value="" style="shape=line;strokeWidth=6;strokeColor=#ff0000;rotation=90" parent="3" vertex="1">
          <mxGeometry x="130" y="127.5" width="50" height="15" as="geometry" />
        </mxCell>
        <mxCell id="26" value="" style="edgeStyle=elbowEdgeStyle;elbow=horizontal;verticalAlign=bottom;endArrow=open;endSize=8;strokeColor=#FF0000;endFill=1;rounded=0" parent="3" source="25" target="15" edge="1">
          <mxGeometry x="130" y="90" as="geometry">
            <mxPoint x="230" y="140" as="targetPoint" />
          </mxGeometry>
        </mxCell>
        <mxCell id="30" value="dispatch&#xa;command&#xa;worker thread" style="" parent="3" vertex="1">
          <mxGeometry x="140" y="325" width="110" height="50" as="geometry" />
        </mxCell>
        <mxCell id="31" value="critical&#xa;section" style="shape=note;whiteSpace=wrap;size=17" parent="3" vertex="1">
          <mxGeometry x="105" y="490" width="100" height="50" as="geometry" />
        </mxCell>
        <mxCell id="32" value="" style="endArrow=none;strokeColor=#FF0000;endFill=0;rounded=0;dashed=1" parent="3" source="18" target="31" edge="1">
          <mxGeometry relative="1" as="geometry" />
        </mxCell>
        <mxCell id="34" value="" style="whiteSpace=wrap;strokeColor=#FF0000;fillColor=#FF0000" parent="3" vertex="1">
          <mxGeometry x="245" y="395" width="5" height="45" as="geometry" />
        </mxCell>
        <mxCell id="41" value="" style="edgeStyle=elbowEdgeStyle;elbow=horizontal;entryX=0;entryY=0.5;strokeColor=#FF0000;endArrow=open;endFill=1;rounded=0" parent="3" source="30" target="34" edge="1">
          <mxGeometry width="100" height="100" relative="1" as="geometry">
            <mxPoint x="60" y="480" as="sourcePoint" />
            <mxPoint x="160" y="380" as="targetPoint" />
            <Array as="points">
              <mxPoint x="195" y="400" />
            </Array>
          </mxGeometry>
        </mxCell>
        <mxCell id="4" value="Inventory System" style="swimlane;whiteSpace=wrap" parent="1" vertex="1">
          <mxGeometry x="910" y="20" width="280" height="570" as="geometry" />
        </mxCell>
        <mxCell id="33" value="process&#xa;command" style="" parent="4" vertex="1">
          <mxGeometry x="90" y="405" width="110" height="50" as="geometry" />
        </mxCell>
        <mxCell id="35" value="" style="edgeStyle=elbowEdgeStyle;elbow=horizontal;strokeColor=#FF0000;endArrow=open;endFill=1;rounded=0;entryX=0.25;entryY=0.5;entryPerimeter=0" parent="4" target="25" edge="1">
          <mxGeometry width="100" height="100" relative="1" as="geometry">
            <mxPoint x="-30" y="410" as="sourcePoint" />
            <mxPoint x="-120" y="120" as="targetPoint" />
            <Array as="points">
              <mxPoint x="-10" y="135" />
            </Array>
          </mxGeometry>
        </mxCell>
        <mxCell id="37" value="" style="edgeStyle=none;strokeColor=#FF0000;endArrow=open;endFill=1;rounded=0" parent="4" target="33" edge="1">
          <mxGeometry width="100" height="100" relative="1" as="geometry">
            <mxPoint x="-30" y="429.5" as="sourcePoint" />
            <mxPoint x="90" y="429.5" as="targetPoint" />
          </mxGeometry>
        </mxCell>
        <mxCell id="38" value="" style="ellipse;shape=endState;fillColor=#000000;strokeColor=#ff0000" parent="4" vertex="1">
          <mxGeometry x="130" y="500" width="30" height="30" as="geometry" />
        </mxCell>
        <mxCell id="39" value="" style="endArrow=open;strokeColor=#FF0000;endFill=1;rounded=0" parent="4" source="33" target="38" edge="1">
          <mxGeometry relative="1" as="geometry" />
        </mxCell>
        <mxCell id="ocmlmnkPLiXoLDkhKhnW-51" value="Order Processing" style="swimlane;whiteSpace=wrap;html=1;" parent="1" vertex="1">
          <mxGeometry x="340" y="20" width="290" height="663" as="geometry" />
        </mxCell>
        <mxCell id="ocmlmnkPLiXoLDkhKhnW-76" style="edgeStyle=orthogonalEdgeStyle;rounded=0;orthogonalLoop=1;jettySize=auto;html=1;exitX=1;exitY=0.5;exitDx=0;exitDy=0;entryX=0.5;entryY=0;entryDx=0;entryDy=0;" parent="ocmlmnkPLiXoLDkhKhnW-51" source="ocmlmnkPLiXoLDkhKhnW-58" target="ocmlmnkPLiXoLDkhKhnW-60" edge="1">
          <mxGeometry relative="1" as="geometry" />
        </mxCell>
        <mxCell id="ocmlmnkPLiXoLDkhKhnW-58" value="Receive Checkout &#xa;request" style="" parent="ocmlmnkPLiXoLDkhKhnW-51" vertex="1">
          <mxGeometry x="30" y="43" width="110" height="50" as="geometry" />
        </mxCell>
        <mxCell id="ocmlmnkPLiXoLDkhKhnW-60" value="Validate Cart Contents" style="whiteSpace=wrap;html=1;" parent="ocmlmnkPLiXoLDkhKhnW-51" vertex="1">
          <mxGeometry x="150" y="93" width="120" height="60" as="geometry" />
        </mxCell>
        <mxCell id="ocmlmnkPLiXoLDkhKhnW-63" value="" style="shape=line;html=1;strokeWidth=6;strokeColor=#ff0000;" parent="ocmlmnkPLiXoLDkhKhnW-51" vertex="1">
          <mxGeometry x="40" y="183" width="200" height="10" as="geometry" />
        </mxCell>
        <mxCell id="ocmlmnkPLiXoLDkhKhnW-64" value="" style="edgeStyle=orthogonalEdgeStyle;html=1;verticalAlign=bottom;endArrow=open;endSize=8;strokeColor=#ff0000;rounded=0;" parent="ocmlmnkPLiXoLDkhKhnW-51" edge="1">
          <mxGeometry relative="1" as="geometry">
            <mxPoint x="74.5" y="263" as="targetPoint" />
            <mxPoint x="74.97000000000023" y="228" as="sourcePoint" />
            <Array as="points">
              <mxPoint x="74.97" y="193" />
              <mxPoint x="74.97" y="193" />
            </Array>
          </mxGeometry>
        </mxCell>
        <mxCell id="ocmlmnkPLiXoLDkhKhnW-65" style="edgeStyle=orthogonalEdgeStyle;rounded=0;orthogonalLoop=1;jettySize=auto;html=1;exitX=0.5;exitY=1;exitDx=0;exitDy=0;entryX=0.499;entryY=0.148;entryDx=0;entryDy=0;entryPerimeter=0;" parent="ocmlmnkPLiXoLDkhKhnW-51" source="ocmlmnkPLiXoLDkhKhnW-60" target="ocmlmnkPLiXoLDkhKhnW-63" edge="1">
          <mxGeometry relative="1" as="geometry" />
        </mxCell>
        <mxCell id="ocmlmnkPLiXoLDkhKhnW-67" value="" style="edgeStyle=orthogonalEdgeStyle;html=1;verticalAlign=bottom;endArrow=open;endSize=8;strokeColor=#ff0000;rounded=0;" parent="ocmlmnkPLiXoLDkhKhnW-51" edge="1">
          <mxGeometry relative="1" as="geometry">
            <mxPoint x="200" y="263" as="targetPoint" />
            <mxPoint x="200" y="193" as="sourcePoint" />
            <Array as="points">
              <mxPoint x="200" y="193" />
              <mxPoint x="-50" y="228" />
              <mxPoint x="200" y="228" />
            </Array>
          </mxGeometry>
        </mxCell>
        <mxCell id="ocmlmnkPLiXoLDkhKhnW-69" value="Create Order Record" style="whiteSpace=wrap;html=1;" parent="ocmlmnkPLiXoLDkhKhnW-51" vertex="1">
          <mxGeometry x="160" y="260" width="90" height="52" as="geometry" />
        </mxCell>
        <mxCell id="ocmlmnkPLiXoLDkhKhnW-68" value="Calculate Total order&amp;nbsp;" style="whiteSpace=wrap;html=1;" parent="ocmlmnkPLiXoLDkhKhnW-51" vertex="1">
          <mxGeometry x="30" y="264" width="90" height="48" as="geometry" />
        </mxCell>
        <mxCell id="ocmlmnkPLiXoLDkhKhnW-74" style="edgeStyle=orthogonalEdgeStyle;rounded=0;orthogonalLoop=1;jettySize=auto;html=1;exitX=0.5;exitY=1;exitDx=0;exitDy=0;entryX=0.16;entryY=0.2;entryDx=0;entryDy=0;entryPerimeter=0;fillColor=#a20025;strokeColor=#6F0000;" parent="ocmlmnkPLiXoLDkhKhnW-51" source="ocmlmnkPLiXoLDkhKhnW-68" edge="1" target="ocmlmnkPLiXoLDkhKhnW-70">
          <mxGeometry relative="1" as="geometry">
            <mxPoint x="75.60000000000014" y="367.1100000000001" as="targetPoint" />
          </mxGeometry>
        </mxCell>
        <mxCell id="ocmlmnkPLiXoLDkhKhnW-81" style="edgeStyle=orthogonalEdgeStyle;rounded=0;orthogonalLoop=1;jettySize=auto;html=1;exitX=1;exitY=0.5;exitDx=0;exitDy=0;entryX=0;entryY=0.5;entryDx=0;entryDy=0;" parent="ocmlmnkPLiXoLDkhKhnW-51" source="ocmlmnkPLiXoLDkhKhnW-78" target="ocmlmnkPLiXoLDkhKhnW-79" edge="1">
          <mxGeometry relative="1" as="geometry" />
        </mxCell>
        <mxCell id="ocmlmnkPLiXoLDkhKhnW-78" value="Invoke Inventory System" style="html=1;whiteSpace=wrap;" parent="ocmlmnkPLiXoLDkhKhnW-51" vertex="1">
          <mxGeometry x="20" y="363" width="110" height="50" as="geometry" />
        </mxCell>
        <mxCell id="nWX-HPIskZsN5qeK0ZjT-48" style="edgeStyle=orthogonalEdgeStyle;rounded=0;orthogonalLoop=1;jettySize=auto;html=1;exitX=0.5;exitY=1;exitDx=0;exitDy=0;entryX=0.5;entryY=0;entryDx=0;entryDy=0;" edge="1" parent="ocmlmnkPLiXoLDkhKhnW-51" source="ocmlmnkPLiXoLDkhKhnW-79" target="ocmlmnkPLiXoLDkhKhnW-85">
          <mxGeometry relative="1" as="geometry" />
        </mxCell>
        <mxCell id="ocmlmnkPLiXoLDkhKhnW-79" value="Invoke Payment System" style="html=1;whiteSpace=wrap;" parent="ocmlmnkPLiXoLDkhKhnW-51" vertex="1">
          <mxGeometry x="160" y="363" width="110" height="50" as="geometry" />
        </mxCell>
        <mxCell id="nWX-HPIskZsN5qeK0ZjT-45" value="" style="edgeStyle=orthogonalEdgeStyle;rounded=0;orthogonalLoop=1;jettySize=auto;html=1;exitX=0.5;exitY=1;exitDx=0;exitDy=0;entryX=0.75;entryY=0.5;entryDx=0;entryDy=0;entryPerimeter=0;fillColor=#a20025;strokeColor=#6F0000;" edge="1" parent="ocmlmnkPLiXoLDkhKhnW-51" source="ocmlmnkPLiXoLDkhKhnW-69" target="ocmlmnkPLiXoLDkhKhnW-70">
          <mxGeometry relative="1" as="geometry">
            <mxPoint x="535.0000000000002" y="495" as="targetPoint" />
            <mxPoint x="545" y="439" as="sourcePoint" />
          </mxGeometry>
        </mxCell>
        <mxCell id="nWX-HPIskZsN5qeK0ZjT-46" style="edgeStyle=orthogonalEdgeStyle;rounded=0;orthogonalLoop=1;jettySize=auto;html=1;exitX=0.25;exitY=0.5;exitDx=0;exitDy=0;exitPerimeter=0;entryX=0.5;entryY=0;entryDx=0;entryDy=0;" edge="1" parent="ocmlmnkPLiXoLDkhKhnW-51" source="ocmlmnkPLiXoLDkhKhnW-70" target="ocmlmnkPLiXoLDkhKhnW-78">
          <mxGeometry relative="1" as="geometry">
            <Array as="points">
              <mxPoint x="75" y="337" />
            </Array>
          </mxGeometry>
        </mxCell>
        <mxCell id="ocmlmnkPLiXoLDkhKhnW-70" value="" style="shape=line;html=1;strokeWidth=6;strokeColor=#ff0000;" parent="ocmlmnkPLiXoLDkhKhnW-51" vertex="1">
          <mxGeometry x="45" y="333" width="200" height="7" as="geometry" />
        </mxCell>
        <mxCell id="ocmlmnkPLiXoLDkhKhnW-85" value="Payment Approved?" style="rhombus;whiteSpace=wrap;html=1;fontColor=#000000;fillColor=#ffffc0;strokeColor=#ff0000;" parent="ocmlmnkPLiXoLDkhKhnW-51" vertex="1">
          <mxGeometry x="30" y="448" width="80" height="40" as="geometry" />
        </mxCell>
        <mxCell id="ocmlmnkPLiXoLDkhKhnW-86" value="no" style="edgeStyle=orthogonalEdgeStyle;html=1;align=left;verticalAlign=bottom;endArrow=open;endSize=8;strokeColor=#ff0000;rounded=0;" parent="ocmlmnkPLiXoLDkhKhnW-51" source="ocmlmnkPLiXoLDkhKhnW-85" edge="1">
          <mxGeometry x="-1" relative="1" as="geometry">
            <mxPoint x="150" y="468" as="targetPoint" />
          </mxGeometry>
        </mxCell>
        <mxCell id="ocmlmnkPLiXoLDkhKhnW-87" value="yes" style="edgeStyle=orthogonalEdgeStyle;html=1;align=left;verticalAlign=top;endArrow=open;endSize=8;strokeColor=#ff0000;rounded=0;" parent="ocmlmnkPLiXoLDkhKhnW-51" source="ocmlmnkPLiXoLDkhKhnW-85" edge="1">
          <mxGeometry x="-1" relative="1" as="geometry">
            <mxPoint x="70" y="523" as="targetPoint" />
          </mxGeometry>
        </mxCell>
        <mxCell id="nWX-HPIskZsN5qeK0ZjT-60" style="edgeStyle=orthogonalEdgeStyle;rounded=0;orthogonalLoop=1;jettySize=auto;html=1;exitX=0.25;exitY=0.5;exitDx=0;exitDy=0;exitPerimeter=0;entryX=0.5;entryY=0;entryDx=0;entryDy=0;" edge="1" parent="ocmlmnkPLiXoLDkhKhnW-51" source="nWX-HPIskZsN5qeK0ZjT-49" target="nWX-HPIskZsN5qeK0ZjT-53">
          <mxGeometry relative="1" as="geometry" />
        </mxCell>
        <mxCell id="nWX-HPIskZsN5qeK0ZjT-63" style="edgeStyle=orthogonalEdgeStyle;rounded=0;orthogonalLoop=1;jettySize=auto;html=1;exitX=0.75;exitY=0.5;exitDx=0;exitDy=0;exitPerimeter=0;entryX=0.5;entryY=0;entryDx=0;entryDy=0;" edge="1" parent="ocmlmnkPLiXoLDkhKhnW-51" source="nWX-HPIskZsN5qeK0ZjT-49" target="nWX-HPIskZsN5qeK0ZjT-52">
          <mxGeometry relative="1" as="geometry" />
        </mxCell>
        <mxCell id="nWX-HPIskZsN5qeK0ZjT-49" value="" style="shape=line;html=1;strokeWidth=6;strokeColor=#ff0000;" vertex="1" parent="ocmlmnkPLiXoLDkhKhnW-51">
          <mxGeometry x="30" y="520" width="140" height="10" as="geometry" />
        </mxCell>
        <mxCell id="nWX-HPIskZsN5qeK0ZjT-52" value="&lt;div&gt;Generate Invoice &amp;amp; Persist Order&lt;/div&gt;" style="html=1;whiteSpace=wrap;" vertex="1" parent="ocmlmnkPLiXoLDkhKhnW-51">
          <mxGeometry x="90" y="550" width="92.5" height="40" as="geometry" />
        </mxCell>
        <mxCell id="nWX-HPIskZsN5qeK0ZjT-59" style="edgeStyle=orthogonalEdgeStyle;rounded=0;orthogonalLoop=1;jettySize=auto;html=1;exitX=0.5;exitY=1;exitDx=0;exitDy=0;entryX=0.5;entryY=0;entryDx=0;entryDy=0;" edge="1" parent="ocmlmnkPLiXoLDkhKhnW-51" source="nWX-HPIskZsN5qeK0ZjT-57" target="nWX-HPIskZsN5qeK0ZjT-58">
          <mxGeometry relative="1" as="geometry" />
        </mxCell>
        <mxCell id="nWX-HPIskZsN5qeK0ZjT-57" value="Notify Customer of failure" style="html=1;whiteSpace=wrap;" vertex="1" parent="ocmlmnkPLiXoLDkhKhnW-51">
          <mxGeometry x="150" y="443" width="110" height="50" as="geometry" />
        </mxCell>
        <mxCell id="nWX-HPIskZsN5qeK0ZjT-58" value="" style="ellipse;html=1;shape=endState;fillColor=#000000;strokeColor=#ff0000;" vertex="1" parent="ocmlmnkPLiXoLDkhKhnW-51">
          <mxGeometry x="200" y="520" width="30" height="30" as="geometry" />
        </mxCell>
        <mxCell id="nWX-HPIskZsN5qeK0ZjT-53" value="Update Inventory&lt;div&gt;&lt;br&gt;&lt;/div&gt;" style="html=1;whiteSpace=wrap;" vertex="1" parent="ocmlmnkPLiXoLDkhKhnW-51">
          <mxGeometry y="550" width="90" height="40" as="geometry" />
        </mxCell>
        <mxCell id="nWX-HPIskZsN5qeK0ZjT-64" value="" style="shape=line;html=1;strokeWidth=6;strokeColor=#ff0000;" vertex="1" parent="ocmlmnkPLiXoLDkhKhnW-51">
          <mxGeometry x="25" y="610" width="125" height="10" as="geometry" />
        </mxCell>
        <mxCell id="nWX-HPIskZsN5qeK0ZjT-66" style="edgeStyle=orthogonalEdgeStyle;rounded=0;orthogonalLoop=1;jettySize=auto;html=1;exitX=0.5;exitY=1;exitDx=0;exitDy=0;entryX=0.156;entryY=-0.2;entryDx=0;entryDy=0;entryPerimeter=0;" edge="1" parent="ocmlmnkPLiXoLDkhKhnW-51" source="nWX-HPIskZsN5qeK0ZjT-53" target="nWX-HPIskZsN5qeK0ZjT-64">
          <mxGeometry relative="1" as="geometry" />
        </mxCell>
        <mxCell id="nWX-HPIskZsN5qeK0ZjT-67" style="edgeStyle=orthogonalEdgeStyle;rounded=0;orthogonalLoop=1;jettySize=auto;html=1;exitX=0.5;exitY=1;exitDx=0;exitDy=0;entryX=0.75;entryY=0.5;entryDx=0;entryDy=0;entryPerimeter=0;" edge="1" parent="ocmlmnkPLiXoLDkhKhnW-51" source="nWX-HPIskZsN5qeK0ZjT-52" target="nWX-HPIskZsN5qeK0ZjT-64">
          <mxGeometry relative="1" as="geometry" />
        </mxCell>
        <mxCell id="ocmlmnkPLiXoLDkhKhnW-54" style="edgeStyle=orthogonalEdgeStyle;rounded=0;orthogonalLoop=1;jettySize=auto;html=1;fillColor=#a20025;strokeColor=#6F0000;entryX=0;entryY=0.5;entryDx=0;entryDy=0;" parent="1" source="ocmlmnkPLiXoLDkhKhnW-50" target="ocmlmnkPLiXoLDkhKhnW-58" edge="1">
          <mxGeometry relative="1" as="geometry">
            <mxPoint x="286" y="270" as="targetPoint" />
          </mxGeometry>
        </mxCell>
        <mxCell id="ocmlmnkPLiXoLDkhKhnW-59" value="Yes" style="edgeLabel;html=1;align=center;verticalAlign=middle;resizable=0;points=[];" parent="ocmlmnkPLiXoLDkhKhnW-54" vertex="1" connectable="0">
          <mxGeometry x="-0.8906" y="-3" relative="1" as="geometry">
            <mxPoint x="21" y="-3" as="offset" />
          </mxGeometry>
        </mxCell>
      </root>
    </mxGraphModel>
  </diagram>
</mxfile>
